<svg id="Layer_1" data-name="Layer 1" xmlns="http://www.w3.org/2000/svg" viewBox="0 0 1000 366.02"><defs><style>.cls-1{fill:#fff;}</style></defs><path class="cls-1" d="M56.82,368,3.15,290.14V368H0V284.88H3.15L56.82,362.6V284.88h3.09V368Z" transform="translate(-0.01 -2.01)"/><path class="cls-1" d="M120.91,288v35.74H162.6v3.08H120.91v38.15h47.51V368H117.83V284.88h50.59V288Z" transform="translate(-0.01 -2.01)"/><path class="cls-1" d="M235.89,324.28l-13.31,12.28V368H219.5V284.88h3.08v48l13.59-13.24,34.61-34.78h4.45l-37,37.23L278.09,368h-4Z" transform="translate(-0.01 -2.01)"/><path class="cls-1" d="M385.8,367.22v.8h-3.26l-22.09-35.57H331.61V368h-3.08V284.88H355a33.86,33.86,0,0,1,14.16,2.8,22,22,0,0,1,9.65,8.22,23.42,23.42,0,0,1,3.49,13,23,23,0,0,1-2.49,10.63,22.81,22.81,0,0,1-16.24,12.16Zm-28-37.86a22.44,22.44,0,0,0,11.65-2.88,19,19,0,0,0,7.31-7.57,21.39,21.39,0,0,0,2.45-10.05,20.48,20.48,0,0,0-3-11.16,19.07,19.07,0,0,0-8.42-7.22A30.29,30.29,0,0,0,355,288H331.61v41.39Z" transform="translate(-0.01 -2.01)"/><path class="cls-1" d="M443.49,288v35.74h41.69v3.08H443.49v38.15H491V368H440.41V284.88H491V288Z" transform="translate(-0.01 -2.01)"/><path class="cls-1" d="M598.55,288H568.29v80H565.2V288H534.94v-3.09h63.61Z" transform="translate(-0.01 -2.01)"/><path class="cls-1" d="M705,368l-53.68-77.88V368h-3.14V284.88h3.14L705,362.6V284.88h3.08V368Z" transform="translate(-0.01 -2.01)"/><path class="cls-1" d="M768.31,368V284.88h3.08V368Z" transform="translate(-0.01 -2.01)"/><path class="cls-1" d="M888.41,368l-53.67-77.88V368H831.6V284.88h3.14l53.67,77.72V284.88h3.09V368Z" transform="translate(-0.01 -2.01)"/><path class="cls-1" d="M952.5,288v35.74h41.68v3.08H952.5v38.15H1000V368H949.42V284.88H1000V288Z" transform="translate(-0.01 -2.01)"/><path class="cls-1" d="M0,219.67V2H80.08q22.58,0,38.39,4.18T144.32,18a44.76,44.76,0,0,1,14.56,18.53,62.56,62.56,0,0,1,4.57,24.35A47.93,47.93,0,0,1,161.36,75a42,42,0,0,1-6.59,12.78,48.89,48.89,0,0,1-11.5,10.83A74.79,74.79,0,0,1,126.4,107q21.51,5.24,31.83,17c6.85,7.81,10.31,17.84,10.31,30.1a62.28,62.28,0,0,1-5.38,25.83,59.28,59.28,0,0,1-15.78,20.85c-6.9,5.92-15.46,10.55-25.6,13.89s-21.76,5-34.82,5ZM50.51,93.59H76.79a87.19,87.19,0,0,0,15.1-1.19,31.43,31.43,0,0,0,11.43-4.18A19.35,19.35,0,0,0,110.5,80,31.23,31.23,0,0,0,113,66.84,37.41,37.41,0,0,0,111,53.92a18.67,18.67,0,0,0-6-8.29,25.21,25.21,0,0,0-10.24-4.48,70.08,70.08,0,0,0-14.73-1.34H50.51Zm0,33.76v54.24H86.06c6.69,0,12.13-.86,16.36-2.55a26.27,26.27,0,0,0,10-6.57,22.18,22.18,0,0,0,4.91-9.12,39.91,39.91,0,0,0,1.36-10.3,34.28,34.28,0,0,0-1.58-10.76,18,18,0,0,0-5.37-8.07,26.56,26.56,0,0,0-10.09-5.08,59,59,0,0,0-15.83-1.79Z" transform="translate(-0.01 -2.01)"/><path class="cls-1" d="M336.14,2V40.85H246.8V91.64h68.43V129H246.8v51.84h89.34v38.84H196V2Z" transform="translate(-0.01 -2.01)"/><path class="cls-1" d="M562.32,110.77a114.3,114.3,0,0,1-8.15,43.55,101.86,101.86,0,0,1-22.93,34.51,104.1,104.1,0,0,1-35.64,22.7q-20.84,8.15-46.23,8.14H364.81V2h84.56q25.39,0,46.23,8.22a105.63,105.63,0,0,1,35.64,22.71,101.14,101.14,0,0,1,22.93,34.43A113.9,113.9,0,0,1,562.32,110.77Zm-51.7,0a95.4,95.4,0,0,0-4.18-29.13,62.43,62.43,0,0,0-12-22,52.26,52.26,0,0,0-19.18-13.89,65.4,65.4,0,0,0-25.85-4.86H415.6v140h33.77A65.4,65.4,0,0,0,475.22,176a52.06,52.06,0,0,0,19.18-13.9,62.43,62.43,0,0,0,12-22A95.82,95.82,0,0,0,510.62,110.77Z" transform="translate(-0.01 -2.01)"/><path class="cls-1" d="M726.64,2V40.85H637.3V91.64h68.42V129H637.3v51.84h89.34v38.84H586.51V2Z" transform="translate(-0.01 -2.01)"/><path class="cls-1" d="M872.35,132c1.85,4.09,3.63,8.28,5.31,12.56,1.7-4.39,3.5-8.64,5.37-12.79s3.84-8.15,5.83-12L944.74,9.64a18.49,18.49,0,0,1,3.06-4.41,10.09,10.09,0,0,1,3.51-2.32,12.12,12.12,0,0,1,4.4-.74H1000v217.5H955.49V94.49q0-9.12.9-19.72L898.74,186.66a19.26,19.26,0,0,1-7.25,7.92,20.12,20.12,0,0,1-10.38,2.69h-6.88a20.08,20.08,0,0,1-10.39-2.69,19.17,19.17,0,0,1-7.24-7.92l-58-112c.39,3.49.71,7,.9,10.38s.29,6.61.29,9.5V219.67H755.3V2.17h44.3a12.1,12.1,0,0,1,4.41.74,10.13,10.13,0,0,1,3.52,2.32,18.21,18.21,0,0,1,3.07,4.41l56,110.51C868.59,124,870.51,127.89,872.35,132Z" transform="translate(-0.01 -2.01)"/></svg>